#!OML:ASF F:\VICON\USERDATA\INSTALL\rory3\rory3.ASF
:FULLY-SPECIFIED
:DEGREES
172
root 4.71308 17.9054 11.297 -5.16413 -3.41516 0.226031
lowerback 10.6072 1.28964 -0.745121
upperback 0.153628 1.64777 0.403179
thorax -5.82597 0.836303 0.586987
lowerneck -15.9283 -3.35667 -2.09028
upperneck 20.9999 -4.45785 1.34778
head 9.32285 -2.09963 0.246137
rclavicle 1.49966e-014 -2.98177e-015
rhumerus -28.4048 -21.2902 -77.0884
rradius 25.7386
rwrist 4.62146
rhand -18.6038 23.6761
rfingers 7.12502
rthumb 7.68755 -6.16416
lclavicle 1.49966e-014 -2.98177e-015
lhumerus -38.43 2.1162 83.4648
lradius 22.9508
lwrist 8.20711
lhand -29.0131 15.9785
lfingers 7.12502
lthumb -2.36439 45.9452
rfemur -9.9094 0.901767 22.4786
rtibia 73.4306
rfoot 10.065 -8.25628
rtoes 9.49385
lfemur -13.1988 -2.78284 -22.9271
ltibia 29.0613
lfoot -9.03383 -3.59104
ltoes 2.42992
173
root 4.71945 17.9238 11.4927 -5.36097 -3.07889 0.682261
lowerback 10.4442 1.17035 -1.16158
upperback 0.292348 1.43353 0.289349
thorax -5.59191 0.739653 0.740359
lowerneck -15.9472 -3.36297 -1.91012
upperneck 21.1233 -4.43196 0.994088
head 9.35538 -2.11213 0.0971664
rclavicle 4.45363e-015 -7.05686e-015
rhumerus -28.5144 -22.4359 -76.7237
rradius 25.1107
rwrist 5.77158
rhand -18.25 23.3837
rfingers 7.12502
rthumb 8.02903 -6.44377
lclavicle 4.45363e-015 -7.05686e-015
lhumerus -38.0779 1.57473 83.7006
lradius 22.3808
lwrist 10.3091
lhand -30.1429 8.83014
lfingers 7.12502
lthumb -3.45541 38.7819
rfemur -10.8747 0.426861 21.896
rtibia 74.2309
rfoot 8.22369 -8.61392
rtoes 11.5002
lfemur -12.2187 -3.21537 -23.6477
ltibia 28.9968
lfoot -9.54361 -3.21318
ltoes 2.07069
174
root 4.72117 17.9323 11.673 -5.4402 -2.78828 0.635186
lowerback 10.431 1.03641 -1.15169
upperback 0.329341 1.2598 0.340575
thorax -5.54252 0.654229 0.815329
lowerneck -15.8738 -3.35424 -1.92916
upperneck 21.1752 -4.39842 0.914492
head 9.35787 -2.10733 0.0781372
rclavicle 4.2133e-015 -1.08338e-014
rhumerus -28.806 -22.9796 -76.523
rradius 24.9379
rwrist 6.51676
rhand -18.0776 22.7222
rfingers 7.12502
rthumb 8.19546 -7.0989
lclavicle 4.2133e-015 -1.08338e-014
lhumerus -37.7275 2.34997 82.9609
lradius 22.7708
lwrist 7.39899
lhand -28.5086 15.1861
lfingers 7.12502
lthumb -1.87711 45.1576
rfemur -12.0587 0.0792328 21.9956
rtibia 74.8115
rfoot 6.3161 -8.77443
rtoes 11.2294
lfemur -11.3851 -3.5935 -23.7662
ltibia 28.7385
lfoot -9.94596 -2.86791
ltoes 1.40489
175
root 4.71784 17.941 11.8436 -5.47528 -2.85994 0.235984
lowerback 10.5344 0.955564 -0.877321
upperback 0.321011 1.1943 0.516146
thorax -5.60587 0.617336 0.852632
lowerneck -15.6051 -3.21134 -1.96177
upperneck 20.9786 -4.20097 0.951428
head 9.23839 -2.01666 0.12765
rclavicle 6.92369e-015 1.49089e-014
rhumerus -29.2224 -22.8353 -76.5422
rradius 25.0506
rwrist 6.74596
rhand -17.7848 22.7995
rfingers 7.12502
rthumb 8.47799 -7.0103
lclavicle 6.92369e-015 1.49089e-014
lhumerus -37.4471 2.7114 82.5376
lradius 23.0738
lwrist 5.27895
lhand -27.3046 20.6144
lfingers 7.12502
lthumb -0.71431 50.593
rfemur -13.3814 0.0974166 22.6189
rtibia 75.2139
rfoot 4.99129 -8.89047
rtoes 8.29261
lfemur -10.666 -3.85657 -23.4062
ltibia 28.5151
lfoot -9.25537 -2.42493
ltoes 1.44469
176
root 4.71709 17.961 12.0267 -5.58507 -2.90639 0.359085
lowerback 10.5562 0.924068 -1.04669
upperback 0.385165 1.13157 0.513967
thorax -5.5525 0.590331 0.955579
lowerneck -15.6881 -3.20126 -1.95908
upperneck 21.0176 -4.16846 0.873624
head 9.2649 -2.00931 0.102956
rclavicle 2.49747e-014 8.64713e-015
rhumerus -29.4961 -23.07 -76.4412
rradius 24.8173
rwrist 7.1657
rhand -17.6078 23.9445
rfingers 7.12502
rthumb 8.64881 -5.85831
lclavicle 2.49747e-014 8.64713e-015
lhumerus -36.9844 2.69906 82.3617
lradius 23.0703
lwrist 4.55473
lhand -27.0861 22.7988
lfingers 7.12502
lthumb -0.503216 52.7779
rfemur -14.468 0.088928 22.5258
rtibia 75.4204
rfoot 5.93327 -8.67331
rtoes 14.4691
lfemur -9.76633 -4.03428 -23.658
ltibia 28.5528
lfoot -11.0931 -1.85838
ltoes -0.604296
177
root 4.71735 17.9708 12.2011 -5.64803 -2.86616 0.441156
lowerback 10.7036 0.843819 -1.17391
upperback 0.368052 1.00795 0.516155
thorax -5.65237 0.533373 1.04658
lowerneck -15.7963 -3.23291 -1.9062
upperneck 21.1667 -4.18663 0.702229
head 9.33174 -2.03162 0.0300223
rclavicle 1.59688e-015 -1.68967e-015
rhumerus -29.7665 -23.4257 -76.3201
rradius 24.6984
rwrist 7.85078
rhand -17.4468 24.9624
rfingers 7.12502
rthumb 8.80415 -4.83391
lclavicle 1.59688e-015 -1.68967e-015
lhumerus -36.7505 2.47811 82.264
lradius 23.2076
lwrist 4.41059
lhand -27.4195 23.3382
lfingers 7.12502
lthumb -0.825287 53.3164
rfemur -15.6047 0.110808 22.478
rtibia 75.4866
rfoot 5.50029 -8.52142
rtoes 16.0925
lfemur -9.04913 -4.13273 -23.8773
ltibia 28.7079
lfoot -11.5136 -1.49064
ltoes -0.290581
178
root 4.70926 17.955 12.3624 -5.71647 -2.97091 0.0973008
lowerback 10.8893 0.786384 -0.940043
upperback 0.36794 0.965774 0.636821
thorax -5.75376 0.508402 1.04558
lowerneck -15.6145 -3.16558 -1.77823
upperneck 21.1451 -4.10452 0.59716
head 9.28393 -1.99621 -0.0133262
rclavicle 8.62073e-015 1.36167e-014
rhumerus -30.1242 -23.3483 -76.4015
rradius 24.8844
rwrist 8.0263
rhand -17.4138 24.9926
rfingers 7.12502
rthumb 8.83608 -4.80243
lclavicle 8.62073e-015 1.36167e-014
lhumerus -36.4749 2.60078 81.8853
lradius 23.6545
lwrist 3.72223
lhand -26.4699 25.2744
lfingers 7.12502
lthumb 0.0918887 55.2541
rfemur -16.809 0.448392 23.0847
rtibia 75.4691
rfoot 4.09245 -8.5696
rtoes 15.5261
lfemur -8.54669 -4.0038 -23.5769
ltibia 28.862
lfoot -11.8776 -1.19255
ltoes -1.23078
179
root 4.70793 17.9442 12.5399 -5.80307 -3.11746 0.0108787
lowerback 10.8251 0.760849 -0.9148
upperback 0.419511 0.940597 0.726945
thorax -5.6639 0.495893 1.13063
lowerneck -15.6286 -3.04146 -1.79657
upperneck 21.2369 -3.92732 0.594019
head 9.31662 -1.91503 0.00997399
rclavicle -1.09495e-014 -1.63003e-014
rhumerus -30.4913 -23.1676 -76.3825
rradius 24.7537
rwrist 7.35519
rhand -17.4777 23.8223
rfingers 7.12502
rthumb 8.77442 -5.97535
lclavicle -1.09495e-014 -1.63003e-014
lhumerus -36.0062 2.90872 81.4937
lradius 23.9393
lwrist 2.80012
lhand -25.2496 28.0646
lfingers 7.12502
lthumb 1.27046 58.0406
rfemur -17.8852 0.680453 23.2959
rtibia 75.2712
rfoot 2.52015 -8.30474
rtoes 14.5687
lfemur -7.95328 -3.91687 -23.5888
ltibia 29.1106
lfoot -11.9728 -0.754403
ltoes -0.542599
180
root 4.71162 17.9487 12.7178 -5.70379 -3.20006 0.278542
lowerback 10.7707 0.742421 -1.1709
upperback 0.343918 0.881987 0.674647
thorax -5.71452 0.473908 1.22961
lowerneck -15.8123 -3.05097 -1.82547
upperneck 21.4972 -3.92419 0.552155
head 9.44134 -1.91886 -0.00459343
rclavicle 4.91216e-015 1.31198e-014
rhumerus -30.9156 -23.0459 -76.3507
rradius 24.6404
rwrist 6.90341
rhand -17.4947 23.3711
rfingers 7.12502
rthumb 8.75793 -6.42723
lclavicle 4.91216e-015 1.31198e-014
lhumerus -35.7318 2.56841 81.4371
lradius 23.9892
lwrist 3.28624
lhand -25.7559 25.98
lfingers 7.12502
lthumb 0.781482 55.9583
rfemur -19.122 0.812215 23.0132
rtibia 74.8764
rfoot 0.755192 -7.81484
rtoes 13.2314
lfemur -7.4388 -4.09387 -24.0243
ltibia 29.3868
lfoot -13.132 -0.108644
ltoes -0.0927154
181
root 4.70947 17.9397 12.8837 -5.62975 -3.16366 0.310069
lowerback 10.8559 0.681989 -1.20987
upperback 0.333357 0.793951 0.642222
thorax -5.77078 0.431602 1.23063
lowerneck -15.7398 -3.0678 -1.65688
upperneck 21.3042 -3.96495 0.446414
head 9.3546 -1.93727 -0.0710028
rclavicle 1.0871e-017 -9.93923e-015
rhumerus -31.1237 -23.0291 -76.4986
rradius 24.7269
rwrist 6.85388
rhand -17.7665 23.3745
rfingers 7.12502
rthumb 8.4957 -6.43458
lclavicle 1.0871e-017 -9.93923e-015
lhumerus -35.2675 1.99881 81.3875
lradius 24.2138
lwrist 3.49744
lhand -25.3691 25.2483
lfingers 7.12502
lthumb 1.15506 55.2249
rfemur -20.2982 0.913083 23.0191
rtibia 74.3696
rfoot -1.22299 -7.40708
rtoes 12.2592
lfemur -6.90116 -4.30107 -24.1644
ltibia 29.5074
lfoot -13.5585 0.258007
ltoes 1.08011
182
root 4.71007 17.9244 13.0537 -5.68023 -3.1265 0.350343
lowerback 10.7511 0.574031 -1.3255
upperback 0.500082 0.642769 0.736503
thorax -5.53418 0.358861 1.41941
lowerneck -15.8568 -2.97837 -1.68695
upperneck 21.1107 -3.80468 0.352841
head 9.30573 -1.87546 -0.0778746
rclavicle 7.57886e-015 8.94531e-015
rhumerus -31.0815 -22.8077 -76.5761
rradius 24.7347
rwrist 6.79125
rhand -17.6142 22.9925
rfingers 7.12502
rthumb 8.64266 -6.81056
lclavicle 7.57886e-015 8.94531e-015
lhumerus -34.9124 1.71462 81.4547
lradius 24.7759
lwrist 2.42349
lhand -25.3631 25.0826
lfingers 7.12502
lthumb 1.16091 55.0592
rfemur -21.2843 1.01375 23.0136
rtibia 73.7039
rfoot -2.79854 -7.18906
rtoes 10.8296
lfemur -6.237 -4.32059 -24.3254
ltibia 29.5336
lfoot -14.0166 0.497184
ltoes 2.08361
183
root 4.71537 17.9101 13.2288 -5.59689 -3.19086 0.639385
lowerback 10.6112 0.567039 -1.47989
upperback 0.448541 0.611699 0.653804
thorax -5.50951 0.346661 1.42533
lowerneck -15.6551 -2.9231 -1.72758
upperneck 20.9704 -3.72505 0.37784
head 9.22027 -1.84027 -0.0480218
rclavicle -1.30496e-015 -1.63003e-014
rhumerus -31.4922 -22.5012 -76.5731
rradius 24.8297
rwrist 6.49292
rhand -17.4571 24.1213
rfingers 7.12502
rthumb 8.79429 -5.67545
lclavicle -1.30496e-015 -1.63003e-014
lhumerus -34.86 0.910057 81.6443
lradius 25.3606
lwrist 1.97718
lhand -26.1336 25.7623
lfingers 7.12502
lthumb 0.416741 55.7416
rfemur -22.4562 1.14536 22.6761
rtibia 72.9137
rfoot -4.06829 -6.98594
rtoes 9.54222
lfemur -5.65535 -4.24186 -24.7825
ltibia 29.5553
lfoot -14.4679 0.719512
ltoes 2.78502
184
root 4.71477 17.8964 13.4075 -5.59786 -3.07363 0.945812
lowerback 10.7243 0.506643 -1.81377
upperback 0.321432 0.485538 0.602301
thorax -5.70477 0.295371 1.5785
lowerneck -15.3999 -2.84882 -1.70605
upperneck 20.9441 -3.61085 0.287727
head 9.16051 -1.79674 -0.0638474
rclavicle 9.07343e-015 1.78906e-014
rhumerus -31.8894 -22.4026 -76.4711
rradius 24.6617
rwrist 6.3895
rhand -17.6907 25.2481
rfingers 7.12502
rthumb 8.56882 -4.55803
lclavicle 9.07343e-015 1.78906e-014
lhumerus -35.0112 -0.933901 82.527
lradius 25.1384
lwrist 7.58818
lhand -31.058 14.4565
lfingers 7.12502
lthumb -4.33915 44.3921
rfemur -23.3863 1.05787 22.319
rtibia 71.9436
rfoot -5.46558 -7.00352
rtoes 8.10519
lfemur -4.94022 -4.30315 -25.2528
ltibia 29.5641
lfoot -15.0516 0.886125
ltoes 3.20969
